<svg xmlns="http://www.w3.org/2000/svg" xmlns:xlink="http://www.w3.org/1999/xlink" fill="none" version="1.1" width="40" height="40" viewBox="0 0 40 40"><defs><clipPath id="master_svg0_824_492"><rect x="0" y="0" width="40" height="40" rx="0"/></clipPath></defs><g clip-path="url(#master_svg0_824_492)"><g><path d="M4,34C4,37.3137,6.68629,40,10,40L30,40C33.3137,40,36,37.3137,36,34L36,10L26,0L10,0C6.68629,0,4,2.68629,4,6L4,34Z" fill="#44C161" fill-opacity="1"/></g><g><path d="M26,0L26,6C26,8.20914,27.79086,10,30,10L36,10L26,0Z" fill="#FFFFFF" fill-opacity="0.4000000059604645"/></g><g><path d="M19.99577734375,25.9184L15.215757343749999,31.615000000000002Q15.17746734375,31.660600000000002,15.13488734375,31.7023Q15.09230734375,31.744,15.04585734375,31.7812Q14.99939734375,31.8185,14.94951734375,31.851100000000002Q14.89962734375,31.8836,14.84678734375,31.911099999999998Q14.79394734375,31.9386,14.73867734375,31.9608Q14.68339734375,31.983,14.62620734375,31.9997Q14.56901734375,32.016400000000004,14.51047734375,32.0274Q14.45192734375,32.0383,14.39258734375,32.0435Q14.33324734375,32.0487,14.27367734375,32.048100000000005Q14.21411734375,32.047399999999996,14.15490734375,32.0409Q14.09568734375,32.034400000000005,14.03739934375,32.0222Q13.97910634375,32.0099,13.92229534375,31.992Q13.86548534375,31.9741,13.81070434375,31.950699999999998Q13.75592334375,31.927300000000002,13.70369834375,31.898699999999998Q13.65147434375,31.869999999999997,13.60231034375,31.836399999999998Q13.55314534375,31.802799999999998,13.50751434375,31.764499999999998Q13.46188234375,31.7262,13.42022434375,31.6836Q13.37856534375,31.641,13.34128034375,31.5946Q13.30399634375,31.548099999999998,13.27144434375,31.4982Q13.23889234375,31.4483,13.21138734375,31.3955Q13.18388234375,31.3427,13.16168824375,31.287399999999998Q13.13949444375,31.232100000000003,13.12282564375,31.1749Q13.10615694375,31.1177,13.09517384375,31.0592Q13.08419074375,31.0006,13.07899902375,30.9413Q13.07380733375,30.881999999999998,13.07445704375,30.822400000000002Q13.07510676375,30.7628,13.08159164375,30.7036Q13.08807654375,30.644399999999997,13.10033404375,30.586100000000002Q13.11259164375,30.5278,13.13050384375,30.471Q13.14841614375,30.4142,13.17181034375,30.3594Q13.19520534375,30.3046,13.22385634375,30.2524Q13.25250734375,30.200200000000002,13.28613934375,30.151Q13.31977134375,30.1019,13.35806034375,30.0562L18.412937343750002,24.032049999999998L13.35532234375,18.00462Q13.20029134375,17.81986,13.12776534375,17.58984Q13.05523934375,17.35982,13.07626004375,17.11955Q13.09728074375,16.87928,13.20864834375,16.665346Q13.32001534375,16.451412,13.50477434375,16.29638Q13.55040534375,16.258091,13.599570343749999,16.224459Q13.64873434375,16.190827,13.70095934375,16.162175Q13.753183343749999,16.133524,13.80796434375,16.11013Q13.86274534375,16.0867353,13.91955634375,16.068823Q13.97636634375,16.0509107,14.03465934375,16.0386531Q14.09294734375,16.0263955,14.15216734375,16.0199106Q14.21137734375,16.0134256,14.27094734375,16.0127759Q14.33050734375,16.0121261,14.38984734375,16.0173177Q14.44918734375,16.0225094,14.50773734375,16.0334924Q14.56627734375,16.0444755,14.62346734375,16.0611442Q14.68065734375,16.0778129,14.73593734375,16.100007Q14.79121734375,16.1222,14.84404734375,16.149706Q14.89688734375,16.177211,14.94677734375,16.209762Q14.99665734375,16.242314,15.04311734375,16.279599Q15.08956734375,16.316883,15.132147343749999,16.358542Q15.17472734375,16.400201,15.21301734375,16.445832L19.99577734375,22.145699999999998L24.789177343749998,16.433138Q24.827477343749997,16.387506,24.870077343749998,16.345848Q24.91257734375,16.304189,24.95907734375,16.266904Q25.005577343749998,16.22962,25.05537734375,16.197068Q25.10527734375,16.164516,25.158177343749998,16.137011Q25.210977343750002,16.109506,25.266277343749998,16.0873121Q25.32157734375,16.0651183,25.378777343750002,16.0484496Q25.43587734375,16.0317809,25.49447734375,16.0207978Q25.55297734375,16.00981475,25.612377343749998,16.00462309Q25.671677343749998,15.999431427,25.73127734375,16.0000811772Q25.79077734375,16.000730928,25.85007734375,16.00721583Q25.90927734375,16.0137007,25.96757734375,16.0259583Q26.02587734375,16.0382159,26.08267734375,16.0561282Q26.139477343750002,16.0740405,26.194277343750002,16.0974349Q26.24897734375,16.120829,26.30127734375,16.149481Q26.35347734375,16.178132,26.40267734375,16.211764Q26.451777343750003,16.245396,26.49737734375,16.283685Q26.54307734375,16.321975,26.584677343750002,16.364552Q26.62637734375,16.407129,26.663677343750003,16.453585Q26.70097734375,16.500041,26.73347734375,16.549927Q26.76607734375,16.599814,26.79357734375,16.652651Q26.821077343749998,16.705488,26.84327734375,16.760766Q26.86547734375,16.816045,26.882077343749998,16.873232Q26.898777343749998,16.93042,26.90977734375,16.988966Q26.92077734375,17.04751,26.92597734375,17.10685Q26.93117734375,17.16619,26.93047734375,17.22576Q26.92987734375,17.28532,26.923377343749998,17.34454Q26.916877343750002,17.40375,26.90457734375,17.462040000000002Q26.89237734375,17.52033,26.87447734375,17.57714Q26.85647734375,17.63395,26.83307734375,17.68874Q26.80977734375,17.74352,26.78107734375,17.79574Q26.75247734375,17.84797,26.71877734375,17.89713Q26.68517734375,17.9463,26.64687734375,17.99193L21.57860734375,24.032049999999998L26.644177343750002,30.0689Q26.68247734375,30.1145,26.71607734375,30.1637Q26.74967734375,30.212899999999998,26.77837734375,30.2651Q26.80697734375,30.3173,26.83037734375,30.3721Q26.85377734375,30.4269,26.87167734375,30.4837Q26.88957734375,30.5405,26.90187734375,30.5988Q26.91407734375,30.6571,26.92057734375,30.7163Q26.92707734375,30.7755,26.92777734375,30.8351Q26.92837734375,30.8946,26.923177343749998,30.954Q26.91797734375,31.0133,26.90707734375,31.0719Q26.89607734375,31.1304,26.87937734375,31.1876Q26.86267734375,31.244799999999998,26.840477343750003,31.3001Q26.818277343749997,31.3554,26.79077734375,31.4082Q26.763277343749998,31.461,26.73077734375,31.5109Q26.69817734375,31.5608,26.660877343750002,31.607300000000002Q26.62367734375,31.6537,26.581977343749998,31.6963Q26.54027734375,31.7389,26.49467734375,31.7772Q26.30997734375,31.9322,26.07987734375,32.0047Q25.849877343750002,32.077200000000005,25.60957734375,32.056200000000004Q25.36937734375,32.0352,25.15537734375,31.9238Q24.94147734375,31.8125,24.78647734375,31.6277L19.99577734375,25.9184Z" fill-rule="evenodd" fill="#FFFFFF" fill-opacity="1"/></g></g></svg>