<svg xmlns="http://www.w3.org/2000/svg" xmlns:xlink="http://www.w3.org/1999/xlink" fill="none" version="1.1" width="40" height="40" viewBox="0 0 40 40"><defs><clipPath id="master_svg0_824_458"><rect x="0" y="0" width="40" height="40" rx="0"/></clipPath></defs><g clip-path="url(#master_svg0_824_458)"><g><path d="M4,34C4,37.3137,6.68629,40,10,40L30,40C33.3137,40,36,37.3137,36,34L36,10L26,0L10,0C6.68629,0,4,2.68629,4,6L4,34Z" fill="#2B8DFF" fill-opacity="1"/></g><g><path d="M26,0L26,6C26,8.20914,27.79086,10,30,10L36,10L26,0Z" fill="#FFFFFF" fill-opacity="0.4000000059604645"/></g><g><path d="M26.576999999999998,30.5776C27.3706,31.4467,28.8188,30.884999999999998,28.8188,29.7076L28.8188,17.2897C28.8188,16.57742,28.2413,16,27.5291,16C26.8168,16,26.2394,16.57742,26.2394,17.2897L26.2394,26.3824L21.11191,20.76634C20.6005,20.20637,19.71868,20.20637,19.20727,20.76634L14.07941,26.3824L14.07941,17.2897C14.07941,16.57742,13.50199,16,12.7897,16C12.07742,16,11.5,16.57742,11.5,17.2897L11.5,29.7076C11.5,30.884999999999998,12.9486,31.4467,13.74223,30.577199999999998L20.1598,23.5488L26.576999999999998,30.577199999999998L26.576999999999998,30.5776Z" fill="#FFFFFF" fill-opacity="1"/></g></g></svg>