<svg xmlns="http://www.w3.org/2000/svg" xmlns:xlink="http://www.w3.org/1999/xlink" fill="none" version="1.1" width="40" height="40" viewBox="0 0 40 40"><defs><clipPath id="master_svg0_824_530"><rect x="0" y="0" width="40" height="40" rx="0"/></clipPath></defs><g clip-path="url(#master_svg0_824_530)"><g><path d="M4.000244140625,34C4.000244140625,37.3137,6.686534140625,40,10.000244140625,40L30.000244140625,40C33.313944140625,40,36.000244140625,37.3137,36.000244140625,34L36.000244140625,10L26.000244140625,0L10.000244140625,0C6.686534140625,0,4.000244140625,2.68629,4.000244140625,6L4.000244140625,34Z" fill="#FF8EA8" fill-opacity="1"/></g><g><path d="M25.999755859375,6C25.999755859375,8.20914,27.790615859375,10,29.999755859375,10L35.999755859375,10L25.999755859375,0L25.999755859375,6Z" fill="#FFFFFF" fill-opacity="0.4000000059604645"/></g><g><g><path d="M30.1412,29.76118103515625L10.141174,29.76118103515625C10.0848036,29.75571103515625,10.0358036,29.72017103515625,10.0131021,29.668281035156248C9.99040129,29.61640103515625,9.99755457,29.55629103515625,10.0317996,29.51118103515625L15.7818,23.69868103515625C15.89291,23.61535103515625,16.04569,23.61535103515625,16.1568,23.69868103515625L19.53125,26.72980103515625C19.64236,26.81313103515625,19.79611,26.81313103515625,19.90723,26.72980103515625L23.8916,20.08939143515625C24.0131,19.97028423515625,24.2071,19.97028423515625,24.3286,20.08939143515625L30.2662,29.51118103515625C30.3257,29.57194103515625,30.3257,29.66918103515625,30.2662,29.72993103515625L30.1412,29.76118103515625Z" fill="#F5F5F5" fill-opacity="1"/></g><g><path d="M15.00000143051,20.31403C14.999158859,21.17757,15.698959,21.87805,16.5625,21.87805C17.42604,21.87805,18.12584,21.17757,18.125,20.31403C18.12584,19.450484,17.42604,18.75,16.5625,18.75C15.698959,18.75,14.999157429,19.450486,15.00000143051,20.31403Z" fill="#F5F5F5" fill-opacity="1"/></g></g></g></svg>