<svg xmlns="http://www.w3.org/2000/svg" xmlns:xlink="http://www.w3.org/1999/xlink" fill="none" version="1.1" width="40" height="40" viewBox="0 0 40 40"><defs><clipPath id="master_svg0_824_476"><rect x="0" y="0" width="40" height="40" rx="0"/></clipPath></defs><g clip-path="url(#master_svg0_824_476)"><g><path d="M4,34C4,37.3137,6.68629,40,10,40L30,40C33.3137,40,36,37.3137,36,34L36,10L26,0L10,0C6.68629,0,4,2.68629,4,6L4,34Z" fill="#5CCAC3" fill-opacity="1"/></g><g><path d="M26,0L26,6C26,8.20914,27.79086,10,30,10L36,10L26,0Z" fill="#FFFFFF" fill-opacity="0.4000000059604645"/></g><g transform="matrix(1,0,0,-1,0,62)"><path d="M26.576999999999998,45.577600000000004C27.3706,46.4467,28.8188,45.885,28.8188,44.7076L28.8188,32.2897C28.8188,31.57742,28.2413,31,27.5291,31C26.8168,31,26.2394,31.57742,26.2394,32.2897L26.2394,41.382400000000004L21.11191,35.76634C20.6005,35.20637,19.71868,35.20637,19.20727,35.76634L14.07941,41.382400000000004L14.07941,32.2897C14.07941,31.57742,13.50199,31,12.7897,31C12.07742,31,11.5,31.57742,11.5,32.2897L11.5,44.7076C11.5,45.885,12.9486,46.4467,13.74223,45.5772L20.1598,38.5488L26.576999999999998,45.577600000000004Z" fill="#FFFFFF" fill-opacity="1"/></g></g></svg>