<svg xmlns="http://www.w3.org/2000/svg" xmlns:xlink="http://www.w3.org/1999/xlink" fill="none" version="1.1" width="40" height="40" viewBox="0 0 40 40"><defs><clipPath id="master_svg0_824_453"><rect x="0" y="0" width="40" height="40" rx="0"/></clipPath></defs><g clip-path="url(#master_svg0_824_453)"><g><g><path d="M4,6L4,34C4,37.3137,6.68629,40,10,40L30,40C33.3137,40,36,37.3137,36,34L36,10L26,0L10,0C6.68629,0,4,2.68629,4,6Z" fill="#F04B57" fill-opacity="1"/></g><g><path d="M26,0L26,6C26,8.20914,27.79086,10,30,10L36,10L26,0Z" fill="#FFFFFF" fill-opacity="0.4000000059604645"/></g></g><g><path d="M26.365230517578127,32.7725C24.680530517578127,32.7725,23.169230517578125,29.8812,22.374430517578126,28.0015C21.037430517578123,27.442999999999998,19.563090517578125,26.9219,18.130840517578125,26.584899999999998C16.877930517578125,27.4115,14.745700517578125,28.6492,13.108170517578126,28.6492C12.092420517578125,28.6492,11.360143517578125,28.1383,11.091543017578125,27.2483C10.886267517578124,26.5161,11.060092717578126,26.0107,11.281093517578125,25.73704C11.712895517578126,25.14714,12.602850517578124,24.84709,13.934800517578125,24.84709C15.014310517578124,24.84709,16.382810517578125,25.03664,17.909840517578125,25.40512C18.894570517578124,24.70471,19.894600517578127,23.893810000000002,20.784550517578126,23.03531C20.389300517578125,21.16063,19.957920517578124,18.12229,21.053130517578126,16.721064C21.595430517578123,16.0525363,22.421630517578123,15.831111,23.422130517578125,16.131587C24.517330517578124,16.447363,24.933430517578124,17.11632,25.059630517578125,17.64289C25.522930517578125,19.4704,23.422130517578125,21.93456,22.006030517578125,23.38296C22.321730517578125,24.636290000000002,22.737830517578125,25.95804,23.243230517578127,27.1693C25.275530517578126,28.075,27.692130517578125,29.4286,27.965830517578127,30.902900000000002C28.076330517578125,31.413800000000002,27.918630517578126,31.887700000000002,27.502530517578126,32.3037C27.144730517578125,32.5987,26.765630517578124,32.7725,26.365230517578127,32.7725ZM24.850530517578125,29.585C25.221130517578125,30.4095,25.574730517578125,30.7992,25.760930517578124,30.7992C25.789830517578125,30.7992,25.830130517578127,30.7865,25.887930517578127,30.7359C25.956830517578126,30.6603,25.956830517578126,30.6097,25.945330517578125,30.5634C25.907130517578125,30.346600000000002,25.593830517578127,29.9909,24.850530517578125,29.585ZM14.152830517578124,26.2458C13.559950517578125,26.2458,13.397170517578125,26.389,13.347450517578125,26.4557C13.333420517578125,26.477,13.290920517578126,26.541600000000003,13.333420517578125,26.7086C13.368700517578125,26.8518,13.467720517578126,27.0044,13.775000517578125,27.0044C14.159630517578126,27.0044,14.717230517578125,26.7877,15.364080517578124,26.3983C14.900830517578125,26.2959,14.492830517578124,26.2453,14.152830517578124,26.2453L14.152830517578124,26.2458ZM19.955370517578125,25.50882C20.314960517578125,25.61101,20.669530517578124,25.73014,21.017830517578126,25.86582C20.897430517578123,25.54296,20.794560517578127,25.213810000000002,20.709750517578126,24.879820000000002C20.462390517578125,25.09444,20.211220517578127,25.304389999999998,19.955370517578125,25.50882ZM22.458630517578126,18.39047C22.345530517578126,18.38803,22.237530517578126,18.43714,22.164930517578124,18.52392C21.930730517578127,18.8193,21.904030517578125,19.56305,22.085030517578126,20.51548C22.772730517578125,19.77853,23.145830517578126,19.10107,23.053230517578125,18.738970000000002C23.040030517578124,18.68585,23.000030517578125,18.52392,22.679630517578126,18.430419999999998C22.608330517578125,18.40613,22.533830517578124,18.39266,22.458630517578126,18.39047Z" fill="#FFFFFF" fill-opacity="1"/></g></g></svg>