<svg xmlns="http://www.w3.org/2000/svg" xmlns:xlink="http://www.w3.org/1999/xlink" fill="none" version="1.1" width="40" height="40" viewBox="0 0 40 40"><defs><clipPath id="master_svg0_824_467"><rect x="0" y="0" width="40" height="40" rx="0"/></clipPath></defs><g clip-path="url(#master_svg0_824_467)"><g><g><path d="M4,6L4,34C4,37.3137,6.68629,40,10,40L30,40C33.3137,40,36,37.3137,36,34L36,10L26,0L10,0C6.68629,0,4,2.68629,4,6Z" fill="#FF5B3B" fill-opacity="1"/></g><g><path d="M26,0L26,6C26,8.20914,27.79086,10,30,10L36,10L26,0Z" fill="#FFFFFF" fill-opacity="0.4000000059604645"/></g></g><g><path d="M25.8019,19.25457C26.0895,19.54837,26.241799999999998,19.97169,26.241799999999998,20.59944C26.241799999999998,21.22718,26.0895,21.6505,25.8019,21.9443C25.4949,22.25879,24.9743,22.49218,24.2059,22.61301L12.79314,22.61301C12.078957,22.61301,11.5,23.19197,11.5,23.90615L11.5,29.706899999999997C11.5,30.421,12.078958,31,12.79314,31C13.50732,31,14.08628,30.421,14.08628,29.706899999999997L14.08628,25.1997L24.3019,25.1997C24.3631,25.1997,24.4244,25.19556,24.4848,25.18687C27.2473,24.792099999999998,28.8281,23.17537,28.8281,20.59985C28.8281,18.02474,27.2473,16.408011,24.4848,16.013242C24.4242,16.00450452,24.3631,16.0000795584,24.3019,16L12.79314,16C12.078958,16,11.5,16.578957,11.5,17.29314C11.5,18.00732,12.078958,18.58628,12.79314,18.58628L24.2059,18.58628C24.9743,18.70711,25.4949,18.94049,25.8019,19.25499L25.8019,19.25457Z" fill="#FFFFFF" fill-opacity="1"/></g></g></svg>