<svg xmlns="http://www.w3.org/2000/svg" xmlns:xlink="http://www.w3.org/1999/xlink" fill="none" version="1.1" width="40" height="40" viewBox="0 0 40 40"><defs><clipPath id="master_svg0_824_540"><rect x="0" y="0" width="40" height="40" rx="0"/></clipPath></defs><g clip-path="url(#master_svg0_824_540)"><g><path d="M4.000244140625,34C4.000244140625,37.3137,6.686534140625,40,10.000244140625,40L30.000244140625,40C33.313944140625,40,36.000244140625,37.3137,36.000244140625,34L36.000244140625,10L26.000244140625,0L10.000244140625,0C6.686534140625,0,4.000244140625,2.68629,4.000244140625,6L4.000244140625,34Z" fill="#4E7DFF" fill-opacity="1"/></g><g><g><path d="M16.1156005859375,22.50004431640625L16.1156005859375,16.72701031640625C16.1156005859375,16.03676231640625,16.8625885859375,15.60516031640625,17.4605905859375,15.94989031640625L22.469350585937498,18.83729431640625L27.4750005859375,21.72292431640625C28.0737005859375,22.06804431640625,28.0737005859375,22.932044316406248,27.4750005859375,23.27716431640625L22.469350585937498,26.16277431640625L17.4605905859375,29.05017431640625C16.8625875859375,29.39497431640625,16.1156005859375,28.963374316406252,16.1156005859375,28.27307431640625L16.1156005859375,22.50004431640625Z" fill="#FFFFFF" fill-opacity="1"/></g></g><g><path d="M25.999755859375,6C25.999755859375,8.20914,27.790615859375,10,29.999755859375,10L35.999755859375,10L25.999755859375,0L25.999755859375,6Z" fill="#FFFFFF" fill-opacity="0.4000000059604645"/></g></g></svg>